<?xml version="1.0" encoding="UTF-8" standalone="no"?>
<!DOCTYPE svg PUBLIC "-//W3C//DTD SVG 1.1//EN" "http://www.w3.org/Graphics/SVG/1.1/DTD/svg11.dtd">
<svg width="100%" height="100%" viewBox="0 0 227 207" version="1.1" xmlns="http://www.w3.org/2000/svg" xmlns:xlink="http://www.w3.org/1999/xlink" xml:space="preserve" xmlns:serif="http://www.serif.com/" style="fill-rule:evenodd;clip-rule:evenodd;stroke-linejoin:round;stroke-miterlimit:2;">
    <g transform="matrix(1,0,0,1,-35.624456,-67.851991)">
        <g transform="matrix(1,0,0,1,5.443007,35.446166)">
            <path d="M106.408,159.02C105.965,159.216 95.468,163.867 102.477,163.626C112.625,163.277 132.852,191.339 129.46,234.498C129.041,239.828 126.235,238.574 111.5,238.573C33.104,238.568 30.824,238.572 30.564,238.392C29.334,237.547 30.249,237.036 45.951,207.748C47.63,204.616 93.431,121.184 97.745,113.636C98.362,112.558 142.405,33.013 142.711,32.778C144.823,31.157 144.248,33.827 159.741,61.359C163.006,67.16 253.475,231.772 254.915,234.269C256.314,236.694 257.827,236.771 256.282,238.246C255.876,238.635 165.871,238.993 164.81,238.116C163.373,236.929 164.443,187.747 124.362,165.756C123.175,165.105 118.077,162.308 108.198,160.766C108.466,160.636 108.815,161.006 109.083,160.877C109.68,160.589 110.047,159.955 110.609,159.604C110.662,159.57 114.718,158.99 114.797,158.674C115.624,155.361 107.032,158.772 106.408,159.02Z" style="fill:rgb(42,42,41);"/>
            <path d="M92.931,144.249C92.939,131.663 99.183,116.83 108.496,114.47C112.673,113.412 104.122,121.994 105.941,126.297C107.891,130.91 127.298,122.299 141.23,152.626C144.061,158.789 146.271,163.628 144.52,163.26C141.562,162.639 142.112,160.916 129.541,158.311C125.554,157.485 117.681,158.524 117.041,155.592C116.57,153.438 110.989,127.887 100.523,133.536C97.899,134.952 96.223,139.223 95.997,139.798C95.288,141.606 95.142,144.222 92.931,144.249Z" style="fill:rgb(253,253,253);"/>
            <path d="M160.594,124.117C158.102,122.996 140.795,115.207 126.482,122.464C124.721,123.357 123.505,125.425 122.737,122.418C121.25,116.585 116.4,115.479 115.615,115.3C115.474,115.268 110.465,113.66 115.499,113.497C116.299,113.471 116.258,113.847 125.5,113.903C207.185,114.394 237.367,227.425 235.385,229.439C231.898,232.986 231.982,203.372 203.037,161.815C185.895,137.203 164.628,126.203 160.594,124.117Z" style="fill:rgb(242,242,242);"/>
            <path d="M135.636,121.955C153.308,121.323 157.581,125.044 159.015,126.293C154.904,129.472 148.941,134.672 147.921,133.189C145.221,129.261 146.523,127.191 134.692,123.289L135.636,121.955Z" style="fill:rgb(253,253,253);"/>
            <path d="M106.408,159.02C107.032,158.772 115.624,155.361 114.797,158.674C114.718,158.99 110.662,159.57 110.609,159.604C110.047,159.955 109.68,160.589 109.083,160.877C108.815,161.006 108.466,160.636 108.198,160.766C107.602,160.184 107.005,159.602 106.408,159.02Z" style="fill:rgb(185,185,184);"/>
        </g>
    </g>
</svg>
